# xmcd CD database file
#
# Track frame offsets:
#	150
#	14454
#	33081
#	54799
#	67902
#	89719
#	108954
#	124153
#	139601
#	153705
#	180542
#	197186
#	209807
#	222410
#	234829
#	247444
#	265718
#	278083
#	300238
#	311636
#
# Disc length: 4778 seconds
#
# Revision: 0
# Processed by: cddbd v1.4PL0 Copyright (c) Steve Scherf et al.
# Submitted via: Feurio! 1.63 - http://www.feurio.com
#
DISCID=2012a814
DTITLE=Various Artist - Millenium Blues
DYEAR=1900
DGENRE=Blues
TTITLE0=Eric Clapton - Hoochie Coochie Man
TTITLE1=Robert Cray Band - Smoking Gun
TTITLE2=Susan Tedeschi - It Hurt So Bad
TTITLE3=Muddy Waters - Manish Boy
TTITLE4=George Thorogood and The Destroyers - Bad To The Bone
TTITLE5=Jonny Lang - Good Morning Little Schoolgirl
TTITLE6=The Fabulous Thunderbirds - Tuff Enuff
TTITLE7=Bonnie Raitt - Runaway
TTITLE8=Howlin' Wolf - Smoke Stack Lightning
TTITLE9=Kenny Wayne Shepherd - Born With A Broken Heart
TTITLE10=The Allman Brothers Band - Ain't Wastin' Time No More
TTITLE11=Etta James - Something's Got A Hold On Me
TTITLE12=Albert King - Born Under A Bad Sign
TTITLE13=Johnny Winter - Johnny B. Goode
TTITLE14=Jimmy Reed - Big Boss Man
TTITLE15=B.B. King - The Thrill Is Gone
TTITLE16=Elmore James - Dust My Broom
TTITLE17=Koko Taylor - Wang Dang Doodle
TTITLE18=John Lee Hooker - Boom Boom
TTITLE19=Stevie Ray Vaughan and Double Trouble - Flood Down In Texas
EXTD=
EXTT0=
EXTT1=
EXTT2=
EXTT3=
EXTT4=
EXTT5=
EXTT6=
EXTT7=
EXTT8=
EXTT9=
EXTT10=
EXTT11=
EXTT12=
EXTT13=
EXTT14=
EXTT15=
EXTT16=
EXTT17=
EXTT18=
EXTT19=
PLAYORDER=
